<svg id="Layer_1" data-name="Layer 1" xmlns="http://www.w3.org/2000/svg" viewBox="0 0 203.68 71.6"><defs><style>.cls-1{fill:none;stroke:#111;stroke-miterlimit:10;stroke-width:26px;}.cls-2{fill:#e234ce;}.cls-3{fill:#fff;}.cls-4{fill:#111;}</style></defs><title>logo-small</title><path class="cls-1" d="M26.05,23.63a40.28,40.28,0,0,1,6.19,10.22l-2.48,1.27a40.56,40.56,0,0,0-6-10.3Zm25.2.43c-.11.33-.36.47-.94.47C46.68,38,39.77,45.84,29.65,50.45a11.28,11.28,0,0,0-1.83-1.91c9.9-4.35,16.55-11.84,20-25.59Z"/><path class="cls-1" d="M86.56,44.91v2.44H56.87V44.91ZM83,25.14v2.49H60.68V25.14Z"/><path class="cls-1" d="M94.81,29.61a38.64,38.64,0,0,1,2.7,7.74l-2,.54a40.83,40.83,0,0,0-2.63-7.67Zm21.49.25c-.07.32-.43.4-.75.36-2.81,10.51-8.1,17-16.81,20.48a9.67,9.67,0,0,0-1.41-1.65c8.61-3.39,13.54-9.29,16.16-20Zm-12.74-2a48.7,48.7,0,0,1,1.69,8.17l-2.12.4a43.68,43.68,0,0,0-1.69-8.1Z"/><path class="cls-1" d="M147.48,26.8a2.59,2.59,0,0,1-.54.5c-3.78,11.67-9.68,19.15-19.62,24.19a9.4,9.4,0,0,0-1.84-2A33.76,33.76,0,0,0,143.73,28.2H130.88a36.6,36.6,0,0,1-8.06,8.89,14.31,14.31,0,0,0-2-1.65,36.58,36.58,0,0,0,11.48-15.62l3.42,1c-.14.36-.57.47-1,.47-.72,1.58-1.48,3.09-2.31,4.53H145l.44-.21Z"/><path class="cls-1" d="M175.23,23.67a.73.73,0,0,1-.46.39,56,56,0,0,1-7.2,12.39,132.32,132.32,0,0,1,13.17,12.2l-2.19,1.91a118,118,0,0,0-12.64-12.1,56.82,56.82,0,0,1-13.86,12.1,13.57,13.57,0,0,0-1.87-2c10-5.47,17.86-15.69,21.09-23.5H153.6V22.66h19.08l.47-.18Z"/><path class="cls-2" d="M26.05,23.63a40.28,40.28,0,0,1,6.19,10.22l-2.48,1.27a40.56,40.56,0,0,0-6-10.3Zm25.2.43c-.11.33-.36.47-.94.47C46.68,38,39.77,45.84,29.65,50.45a11.28,11.28,0,0,0-1.83-1.91c9.9-4.35,16.55-11.84,20-25.59Z"/><path class="cls-2" d="M86.56,44.91v2.44H56.87V44.91ZM83,25.14v2.49H60.68V25.14Z"/><path class="cls-2" d="M94.81,29.61a38.64,38.64,0,0,1,2.7,7.74l-2,.54a40.83,40.83,0,0,0-2.63-7.67Zm21.49.25c-.07.32-.43.4-.75.36-2.81,10.51-8.1,17-16.81,20.48a9.67,9.67,0,0,0-1.41-1.65c8.61-3.39,13.54-9.29,16.16-20Zm-12.74-2a48.7,48.7,0,0,1,1.69,8.17l-2.12.4a43.68,43.68,0,0,0-1.69-8.1Z"/><path class="cls-2" d="M147.48,26.8a2.59,2.59,0,0,1-.54.5c-3.78,11.67-9.68,19.15-19.62,24.19a9.4,9.4,0,0,0-1.84-2A33.76,33.76,0,0,0,143.73,28.2H130.88a36.6,36.6,0,0,1-8.06,8.89,14.31,14.31,0,0,0-2-1.65,36.58,36.58,0,0,0,11.48-15.62l3.42,1c-.14.36-.57.47-1,.47-.72,1.58-1.48,3.09-2.31,4.53H145l.44-.21Z"/><path class="cls-2" d="M175.23,23.67a.73.73,0,0,1-.46.39,56,56,0,0,1-7.2,12.39,132.32,132.32,0,0,1,13.17,12.2l-2.19,1.91a118,118,0,0,0-12.64-12.1,56.82,56.82,0,0,1-13.86,12.1,13.57,13.57,0,0,0-1.87-2c10-5.47,17.86-15.69,21.09-23.5H153.6V22.66h19.08l.47-.18Z"/><path class="cls-3" d="M28.05,25.63a40.28,40.28,0,0,1,6.19,10.22l-2.48,1.27a40.56,40.56,0,0,0-6-10.3Zm25.2.43c-.11.33-.36.47-.94.47C48.68,40,41.77,47.84,31.65,52.45a11.28,11.28,0,0,0-1.83-1.91c9.9-4.35,16.55-11.84,20-25.59Z"/><path class="cls-3" d="M88.56,46.91v2.44H58.87V46.91ZM85,27.14v2.49H62.68V27.14Z"/><path class="cls-3" d="M96.81,31.61a38.64,38.64,0,0,1,2.7,7.74l-2,.54a40.83,40.83,0,0,0-2.63-7.67Zm21.49.25c-.07.32-.43.4-.75.36-2.81,10.51-8.1,17-16.81,20.48a9.67,9.67,0,0,0-1.41-1.65c8.61-3.39,13.54-9.29,16.16-20Zm-12.74-2a48.7,48.7,0,0,1,1.69,8.17l-2.12.4a43.68,43.68,0,0,0-1.69-8.1Z"/><path class="cls-3" d="M149.48,28.8a2.59,2.59,0,0,1-.54.5c-3.78,11.67-9.68,19.15-19.62,24.19a9.4,9.4,0,0,0-1.84-2A33.76,33.76,0,0,0,145.73,30.2H132.88a36.6,36.6,0,0,1-8.06,8.89,14.31,14.31,0,0,0-2-1.65,36.58,36.58,0,0,0,11.48-15.62l3.42,1c-.14.36-.57.47-1,.47-.72,1.58-1.48,3.09-2.31,4.53H147l.44-.21Z"/><path class="cls-3" d="M177.23,25.67a.73.73,0,0,1-.46.39,56,56,0,0,1-7.2,12.39,132.32,132.32,0,0,1,13.17,12.2l-2.19,1.91a118,118,0,0,0-12.64-12.1,56.82,56.82,0,0,1-13.86,12.1,13.57,13.57,0,0,0-1.87-2c10-5.47,17.86-15.69,21.09-23.5H155.6V24.66h19.08l.47-.18Z"/><rect class="cls-4" x="80.65" y="12.14" width="47.21" height="8.31"/></svg>