<svg id="Layer_1" data-name="Layer 1" xmlns="http://www.w3.org/2000/svg" xmlns:xlink="http://www.w3.org/1999/xlink" viewBox="0 0 200 200"><defs><style>.cls-1,.cls-5,.cls-6,.cls-7{fill:none;}.cls-2{clip-path:url(#clip-path);}.cls-3{fill:#1ce5b5;}.cls-4{fill:#e234ce;}.cls-5,.cls-7{stroke:#111;}.cls-5,.cls-6,.cls-7{stroke-miterlimit:10;}.cls-5{stroke-width:50px;}.cls-6{stroke:#fff;stroke-width:27px;}.cls-7{stroke-width:26px;}.cls-8{fill:#fff;}</style><clipPath id="clip-path"><circle class="cls-1" cx="100" cy="100" r="97.87"/></clipPath></defs><title>logo-icon</title><g class="cls-2"><rect class="cls-3" x="-99.66" y="106.45" width="436.22" height="60.13" transform="translate(-44.21 57.73) rotate(-23.21)"/></g><g class="cls-2"><rect class="cls-4" x="-64.42" y="15.28" width="436.22" height="60.13" transform="translate(-5.43 64.24) rotate(-23.21)"/></g><circle class="cls-5" cx="100" cy="100" r="58.93"/><circle class="cls-6" cx="100" cy="100" r="58.93"/><path class="cls-7" d="M26.92,87.05a40.62,40.62,0,0,1,6.2,10.22l-2.49,1.26a40.93,40.93,0,0,0-6-10.29Zm25.2.43c-.11.32-.36.47-.93.47-3.64,13.43-10.55,21.31-20.67,25.92A11.28,11.28,0,0,0,28.69,112c9.9-4.36,16.56-11.84,20-25.59Z"/><path class="cls-7" d="M87.44,108.32v2.45H57.74v-2.45ZM83.91,88.56V91H61.56V88.56Z"/><path class="cls-7" d="M95.68,93a39.08,39.08,0,0,1,2.7,7.74l-2,.54a40.28,40.28,0,0,0-2.63-7.66Zm21.49.26c-.07.32-.43.39-.75.36-2.81,10.51-8.1,17-16.81,20.48a10.12,10.12,0,0,0-1.41-1.66c8.61-3.38,13.54-9.29,16.17-20Zm-12.74-2a48.49,48.49,0,0,1,1.69,8.17l-2.12.39a44,44,0,0,0-1.69-8.1Z"/><path class="cls-7" d="M148.35,90.22a2.17,2.17,0,0,1-.54.5c-3.78,11.66-9.68,19.15-19.62,24.19a9.34,9.34,0,0,0-1.83-2,33.82,33.82,0,0,0,18.25-21.31H131.76a36.83,36.83,0,0,1-8.07,8.89,13.66,13.66,0,0,0-2-1.65,36.47,36.47,0,0,0,11.48-15.63l3.42,1c-.14.36-.57.46-1,.46-.72,1.59-1.48,3.1-2.3,4.54h12.67l.43-.22Z"/><path class="cls-7" d="M176.11,87.08a.76.76,0,0,1-.47.4,56,56,0,0,1-7.2,12.38,132.5,132.5,0,0,1,13.17,12.21l-2.19,1.9a117,117,0,0,0-12.64-12.09A56.39,56.39,0,0,1,152.92,114a12.54,12.54,0,0,0-1.87-1.94c10-5.47,17.86-15.69,21.1-23.5H154.47V86.08h19.08l.47-.18Z"/><path class="cls-4" d="M26.92,87.05a40.62,40.62,0,0,1,6.2,10.22l-2.49,1.26a40.93,40.93,0,0,0-6-10.29Zm25.2.43c-.11.32-.36.47-.93.47-3.64,13.43-10.55,21.31-20.67,25.92A11.28,11.28,0,0,0,28.69,112c9.9-4.36,16.56-11.84,20-25.59Z"/><path class="cls-4" d="M87.44,108.32v2.45H57.74v-2.45ZM83.91,88.56V91H61.56V88.56Z"/><path class="cls-4" d="M95.68,93a39.08,39.08,0,0,1,2.7,7.74l-2,.54a40.28,40.28,0,0,0-2.63-7.66Zm21.49.26c-.07.32-.43.39-.75.36-2.81,10.51-8.1,17-16.81,20.48a10.12,10.12,0,0,0-1.41-1.66c8.61-3.38,13.54-9.29,16.17-20Zm-12.74-2a48.49,48.49,0,0,1,1.69,8.17l-2.12.39a44,44,0,0,0-1.69-8.1Z"/><path class="cls-4" d="M148.35,90.22a2.17,2.17,0,0,1-.54.5c-3.78,11.66-9.68,19.15-19.62,24.19a9.34,9.34,0,0,0-1.83-2,33.82,33.82,0,0,0,18.25-21.31H131.76a36.83,36.83,0,0,1-8.07,8.89,13.66,13.66,0,0,0-2-1.65,36.47,36.47,0,0,0,11.48-15.63l3.42,1c-.14.36-.57.46-1,.46-.72,1.59-1.48,3.1-2.3,4.54h12.67l.43-.22Z"/><path class="cls-4" d="M176.11,87.08a.76.76,0,0,1-.47.4,56,56,0,0,1-7.2,12.38,132.5,132.5,0,0,1,13.17,12.21l-2.19,1.9a117,117,0,0,0-12.64-12.09A56.39,56.39,0,0,1,152.92,114a12.54,12.54,0,0,0-1.87-1.94c10-5.47,17.86-15.69,21.1-23.5H154.47V86.08h19.08l.47-.18Z"/><path class="cls-8" d="M28.92,89.05a40.62,40.62,0,0,1,6.2,10.22l-2.49,1.26a40.93,40.93,0,0,0-6-10.29Zm25.2.43c-.11.32-.36.47-.93.47-3.64,13.43-10.55,21.31-20.67,25.92A11.28,11.28,0,0,0,30.69,114c9.9-4.36,16.56-11.84,20-25.59Z"/><path class="cls-8" d="M89.44,110.32v2.45H59.74v-2.45ZM85.91,90.56V93H63.56V90.56Z"/><path class="cls-8" d="M97.68,95a39.08,39.08,0,0,1,2.7,7.74l-2,.54a40.28,40.28,0,0,0-2.63-7.66Zm21.49.26c-.07.32-.43.39-.75.36-2.81,10.51-8.1,17-16.81,20.48a10.12,10.12,0,0,0-1.41-1.66c8.61-3.38,13.54-9.29,16.17-20Zm-12.74-2a48.49,48.49,0,0,1,1.69,8.17l-2.12.39a44,44,0,0,0-1.69-8.1Z"/><path class="cls-8" d="M150.35,92.22a2.17,2.17,0,0,1-.54.5c-3.78,11.66-9.68,19.15-19.62,24.19a9.34,9.34,0,0,0-1.83-2,33.82,33.82,0,0,0,18.25-21.31H133.76a36.83,36.83,0,0,1-8.07,8.89,13.66,13.66,0,0,0-2-1.65,36.47,36.47,0,0,0,11.48-15.63l3.42,1c-.14.36-.57.46-1,.46-.72,1.59-1.48,3.1-2.3,4.54h12.67l.43-.22Z"/><path class="cls-8" d="M178.11,89.08a.76.76,0,0,1-.47.4,56,56,0,0,1-7.2,12.38,132.5,132.5,0,0,1,13.17,12.21l-2.19,1.9a117,117,0,0,0-12.64-12.09A56.39,56.39,0,0,1,154.92,116a12.54,12.54,0,0,0-1.87-1.94c10-5.47,17.86-15.69,21.1-23.5H156.47V88.08h19.08l.47-.18Z"/></svg>